<?xml version="1.0" encoding="utf-8"?>
<!-- Generator: Adobe Illustrator 23.0.1, SVG Export Plug-In . SVG Version: 6.00 Build 0)  -->
<svg version="1.1" id="Layer_1" xmlns="http://www.w3.org/2000/svg" xmlns:xlink="http://www.w3.org/1999/xlink" x="0px" y="0px"
	 viewBox="0 0 499 499" style="enable-background:new 0 0 499 499;" xml:space="preserve">
<style type="text/css">
	.st0{fill:#6C6D6D;}
	.st1{fill:#E97236;}
	.st2{fill:#FFFFFF;}
</style>
<circle class="st0" cx="250.5" cy="250.5" r="248"/>
<g>
	<g>
		<path class="st1" d="M289.6,352.7v10.9h-65.2v-10.9c0-6,4.9-10.9,10.9-10.9h43.5C284.7,341.8,289.6,346.7,289.6,352.7z"/>
		<path class="st1" d="M186.3,287.4c0,15-12.2,27.2-27.2,27.2c-6.1,0-11.7-2-16.3-5.4l-1.3-0.8c9.5-15.8,21.6-29.6,35.9-41
			C182.9,272.3,186.3,279.4,186.3,287.4z"/>
		<path class="st1" d="M311.4,233v10.9c0,6-4.9,10.9-10.9,10.9h-50.7c-2.4,0-4.7-0.8-6.5-2.2l-16.1-12.1c15.2-4.9,31.3-7.5,48-7.5
			H311.4z"/>
	</g>
	<path class="st2" d="M240.7,341.8h10.9v-16.3h10.9v16.3h10.9v-27.2h-32.6V341.8z"/>
	<path class="st2" d="M344.8,86.2H218c-2.3-6.3-8.2-10.9-15.3-10.9h-38.1V64.5H132v16.3h-21.7v10.9H132v21.7h-21.7v10.9H132v16.3
		h32.6v-10.9h38.1c7.1,0,13.1-4.6,15.3-10.9h126.8c23.5,0,42.7,19.2,42.7,42.7v51.3c0,14.6-7.3,27.8-19.2,35.6l-0.6-1.4
		c-2.3-5.2-7.5-8.6-13.2-8.6h-13.6l-4-10.9h-61.8c-78.8,0-145.5,56.1-159.1,133.6c-15.1,5.4-27.4,17.4-32.7,33.3l-2.4,7.2h268.5
		c9,0,16.3-7.3,16.3-16.3v-10.9c0-3.6-1.2-6.8-3.1-9.5c8.3-5,14-14,14-24.4c0-3.4-0.6-6.7-1.8-9.9l-7.9-21.5h6.1
		c7.9,0,14.4-6.5,14.4-14.4c0-2-0.4-4-1.2-5.9l-4.6-10.4c23.8-13.3,38.5-38.2,38.5-65.7v-51.3C420.1,120,386.3,86.2,344.8,86.2z
		 M153.7,129.7h-10.9V75.4h10.9V129.7z M208.1,113.4c0,3-2.4,5.4-5.4,5.4h-38.1V86.2h38.1c3,0,5.4,2.4,5.4,5.4V113.4z M349.5,369
		c3,0,5.4,2.4,5.4,5.4v10.9c0,3-2.4,5.4-5.4,5.4H96.8c7.4-13.3,21.4-21.7,37-21.7H349.5z M312.9,358.1H184
		c13.1-38.7,49.6-65.2,91.2-65.2h27.2l19.4,52.6c0.4,1,0.6,2.1,0.6,3.2C322.3,353.9,318,358.1,312.9,358.1z M348.1,358.1h-17.4
		c1.5-2.8,2.4-6,2.4-9.4c0-2.4-0.4-4.8-1.3-7l-22-59.7h-34.8c-47.4,0-89,31.1-102.5,76.1h-38.9c-2.1,0-4.1,0.2-6.1,0.4
		c14.5-69.9,75.6-120,147.5-120h54.2l3.8,10.3v0.6h0.2l31.3,85c0.7,2,1.1,4,1.1,6.1C365.8,350.2,357.9,358.1,348.1,358.1z
		 M373.1,298.3H363l-18-48.9h9.6c1.4,0,2.7,0.8,3.2,2.1l18.6,41.9c0.2,0.5,0.3,0.9,0.3,1.4C376.6,296.7,375.1,298.3,373.1,298.3z
		 M409.3,212.9c0,23.2-12.2,44.2-32,55.7l-4.5-10.1c15.9-9.7,25.6-26.7,25.6-45.6v-51.3c0-29.5-24-53.6-53.6-53.6H219V97.1h125.8
		c35.5,0,64.5,28.9,64.5,64.5V212.9z"/>
</g>
</svg>
