<?xml version="1.0" encoding="utf-8"?>
<!-- Generator: Adobe Illustrator 23.0.1, SVG Export Plug-In . SVG Version: 6.00 Build 0)  -->
<svg version="1.1" id="Layer_1" xmlns="http://www.w3.org/2000/svg" xmlns:xlink="http://www.w3.org/1999/xlink" x="0px" y="0px"
	 viewBox="0 0 508.8 496" style="enable-background:new 0 0 508.8 496;" xml:space="preserve">
<style type="text/css">
	.st0{fill:#F04148;}
	.st1{fill:#FFFFFF;}
</style>
<path class="st0" d="M443,480.2H54c-30.2,0-55-24.7-55-55V70c0-30.2,24.7-55,55-55h389c30.2,0,55,24.7,55,55v355.2
	C498,455.4,473.3,480.2,443,480.2z"/>
<g>
	<g>
		<path class="st1" d="M390,189.4v158.7c0,5.1-4.2,9.3-9.3,9.3h-9.3V198.7H128.6v158.7h-9.3c-5.1,0-9.3-4.2-9.3-9.3V189.4
			c0-5.1,4.2-9.3,9.3-9.3h261.4C385.8,180.1,390,184.3,390,189.4z"/>
		<path class="st1" d="M338.6,296.8c-10.3,0-18.7-8.4-18.7-18.7s8.4-18.7,18.7-18.7s18.7,8.4,18.7,18.7S348.9,296.8,338.6,296.8z"/>
		<path class="st1" d="M292,296.8c-10.3,0-18.7-8.4-18.7-18.7s8.4-18.7,18.7-18.7s18.7,8.4,18.7,18.7S302.3,296.8,292,296.8z"/>
	</g>
	<path class="st1" d="M380.7,175.4h-23.3v-54.9l3-6c1.1-2.2,1.7-4.7,1.7-7.2c0-8.8-7.2-16-16-16h-5.4c-8.8,0-16,7.2-16,16
		c0,2.5,0.6,4.9,1.7,7.2l3,6v54.9h-112v-4.7c0-7.7-6.3-14-14-14h-9.3c-7.7,0-14,6.3-14,14v4.7h-9.3v-4.7c0-7.7-6.3-14-14-14h-9.3
		c-7.7,0-14,6.3-14,14v4.7h-14c-7.7,0-14,6.3-14,14v158.7c0,7.7,6.3,14,14,14h15l4.7,18.7h54l4.7-18.7h104.8l4.7,18.7h54l4.7-18.7
		h15c7.7,0,14-6.3,14-14V189.4C394.7,181.7,388.4,175.4,380.7,175.4z M334.7,110.3c-0.5-0.9-0.7-2-0.7-3c0-3.7,3-6.7,6.7-6.7h5.4
		c3.7,0,6.7,3,6.7,6.7c0,1-0.2,2.1-0.7,3l-4,7.9v57.1h-9.3v-57.1L334.7,110.3z M189.3,170.7c0-2.6,2.1-4.7,4.7-4.7h9.3
		c2.6,0,4.7,2.1,4.7,4.7v4.7h-18.7V170.7z M142.6,170.7c0-2.6,2.1-4.7,4.7-4.7h9.3c2.6,0,4.7,2.1,4.7,4.7v4.7h-18.7V170.7z
		 M185.6,371.5h-39.4l-2.3-9.3H188L185.6,371.5z M353.7,371.5h-39.4l-2.3-9.3h44L353.7,371.5z M385.3,348.1c0,2.6-2.1,4.7-4.7,4.7
		H119.2c-2.6,0-4.7-2.1-4.7-4.7V189.4c0-2.6,2.1-4.7,4.7-4.7h261.4c2.6,0,4.7,2.1,4.7,4.7V348.1z"/>
	<path class="st1" d="M273.3,250.1h84v-37.3h-84V250.1z M282.6,222.1H348v18.7h-28v-9.3h-9.3v9.3h-28v-18.7H282.6z"/>
	<path class="st1" d="M273.3,343.5h84v-37.3h-84V343.5z M310.6,334.1h-9.3v-18.7h9.3V334.1z M320,315.4h9.3v18.7H320V315.4z
		 M348,334.1h-9.3v-18.7h9.3V334.1z M282.6,315.4h9.3v18.7h-9.3V315.4z"/>
	<path class="st1" d="M203.3,222.1c-33.5,0-60.7,25.1-60.7,56s27.2,56,60.7,56s60.7-25.1,60.7-56S236.7,222.1,203.3,222.1z
		 M254.6,278.1c0,3.7-0.5,7.2-1.4,10.7l-10.7-10.7l10.7-10.7C254.1,270.9,254.6,274.4,254.6,278.1z M235.9,271.5l-9.7-9.7l15-15
		c3.3,3.3,6.1,7.1,8.3,11.2L235.9,271.5z M203.3,304.2l-9.7-9.7l9.7-9.7l9.7,9.7L203.3,304.2z M219.6,301l14.4,14.4
		c-3.9,2.7-8.3,4.9-13,6.4l-11.1-11.1L219.6,301z M196.7,310.8l-11.1,11.1c-4.7-1.6-9.1-3.8-13-6.4l14.4-14.4L196.7,310.8z
		 M203.3,252l9.7,9.7l-9.7,9.7l-9.7-9.7L203.3,252z M186.9,255.2l-14.4-14.4c3.9-2.7,8.3-4.9,13-6.4l11.1,11.1L186.9,255.2z
		 M209.9,245.4l11.1-11.1c4.7,1.6,9.1,3.8,13,6.4l-14.4,14.4L209.9,245.4z M196.7,278.1l-9.7,9.7l-9.7-9.7l9.7-9.7L196.7,278.1z
		 M209.9,278.1l9.7-9.7l9.7,9.7l-9.7,9.7L209.9,278.1z M210.2,231.9l-6.9,6.9l-6.9-6.9c2.3-0.3,4.6-0.5,6.9-0.5
		S207.9,231.6,210.2,231.9z M165.3,246.8l15,15l-9.7,9.7L157,257.9C159.2,253.8,162,250.1,165.3,246.8z M151.9,278.1
		c0-3.7,0.5-7.2,1.4-10.7l10.7,10.7l-10.7,10.7C152.4,285.3,151.9,281.8,151.9,278.1z M157,298.3l13.6-13.6l9.7,9.7l-15,15
		C162,306.1,159.2,302.4,157,298.3z M196.3,324.3l6.9-6.9l6.9,6.9c-2.3,0.3-4.6,0.5-6.9,0.5S198.6,324.6,196.3,324.3z M241.2,309.4
		l-15-15l9.7-9.7l13.6,13.6C247.3,302.4,244.5,306.1,241.2,309.4z"/>
</g>
</svg>
