<?xml version="1.0" encoding="utf-8"?>
<!-- Generator: Adobe Illustrator 23.0.1, SVG Export Plug-In . SVG Version: 6.00 Build 0)  -->
<svg version="1.1" id="Capa_1" xmlns="http://www.w3.org/2000/svg" xmlns:xlink="http://www.w3.org/1999/xlink" x="0px" y="0px"
	 viewBox="0 0 496 496" style="enable-background:new 0 0 496 496;" xml:space="preserve">
<style type="text/css">
	.st0{fill:#6C6D6D;}
	.st1{fill:#E97236;}
	.st2{fill:#FFFFFF;}
</style>
<g>
	<circle class="st0" cx="248.4" cy="248" r="248"/>
	<g>
		<polygon class="st1" points="228.4,296.2 142.7,296.2 142.7,162.9 228.4,162.9 228.4,229.6 223.6,234.3 214.1,272.4 228.4,267.7 
					"/>
		<polygon class="st1" points="256.9,301 342.6,301 342.6,220.1 295,220.1 256.9,258.1 		"/>
	</g>
	<g>
		<path class="st2" d="M361.6,186.7h19v171.3h-119v4.8c0,10.5-8.5,19-19,19c-10.5,0-19-8.5-19-19v-4.8h-119V186.7h19v147.5h238
			V160.2l21.2-21.2c4.7-4.7,7.3-11,7.3-17.6c0-13.8-11.2-24.9-25-24.9c-6.7,0-12.9,2.6-17.6,7.3l-30.8,30.8H123.7v42.8H95.1v190.4
			h119.4c2.3,13.5,14,23.8,28.2,23.8c14.1,0,25.9-10.3,28.2-23.8h119.4V177.2h-28.6V186.7z M352.1,324.8H247.4V269l7.2-1.8
			l42.4-42.4h45.6v-9.5h-36.1l45.6-45.6V324.8z M325.9,138.7l7.5,7.5l-6.4,6.4l6.7,6.7l6.4-6.4l7.5,7.5l-95.6,95.6l-7.5-7.5
			l82.4-82.4l-6.7-6.7l-82.4,82.4l-7.5-7.5L325.9,138.7z M354.5,153.8L332.7,132l7.5-7.5l21.8,21.8L354.5,153.8z M226.2,243.7
			l16.7,16.7l-22.2,5.6L226.2,243.7z M354.3,110.4c2.9-2.9,6.8-4.5,10.9-4.5c8.5,0,15.4,6.9,15.4,15.4c0,4.1-1.6,8-4.5,10.9
			l-7.4,7.4l-21.8-21.8L354.3,110.4z M247.4,203.8v-59.9h59.9L247.4,203.8z M133.2,143.9h104.7v69.4l-18.6,18.6L207.5,279l30.3-7.6
			v53.4H133.2V143.9z"/>
		<rect x="142.7" y="163.8" class="st2" width="85.7" height="9.5"/>
		<rect x="142.7" y="221" class="st2" width="66.6" height="9.5"/>
		<rect x="142.7" y="240" class="st2" width="57.1" height="9.5"/>
		<rect x="142.7" y="259" class="st2" width="57.1" height="9.5"/>
		<rect x="142.7" y="278.1" class="st2" width="57.1" height="9.5"/>
		<rect x="295" y="240" class="st2" width="47.6" height="9.5"/>
		<rect x="295" y="259" class="st2" width="47.6" height="9.5"/>
		<rect x="256.9" y="272.4" class="st2" width="85.7" height="9.5"/>
		<rect x="333.1" y="291.5" class="st2" width="9.5" height="9.5"/>
		<rect x="256.9" y="291.5" class="st2" width="66.6" height="9.5"/>
		<rect x="142.7" y="297.1" class="st2" width="85.7" height="9.5"/>
		<rect x="190.3" y="182.9" class="st2" width="38.1" height="9.5"/>
		<rect x="142.7" y="182.9" class="st2" width="38.1" height="9.5"/>
		<rect x="190.3" y="201.9" class="st2" width="38.1" height="9.5"/>
		<rect x="142.7" y="201.9" class="st2" width="38.1" height="9.5"/>
	</g>
</g>
</svg>
