<?xml version="1.0" encoding="utf-8"?>
<!-- Generator: Adobe Illustrator 23.0.1, SVG Export Plug-In . SVG Version: 6.00 Build 0)  -->
<svg version="1.1" id="Capa_1" xmlns="http://www.w3.org/2000/svg" xmlns:xlink="http://www.w3.org/1999/xlink" x="0px" y="0px"
	 viewBox="0 0 511.3 496" style="enable-background:new 0 0 511.3 496;" xml:space="preserve">
<style type="text/css">
	.st0{fill:#F04148;}
	.st1{fill:#FFFFFF;}
</style>
<path class="st0" d="M450.1,485.5h-389c-30.2,0-55-24.7-55-55V75.4c0-30.2,24.7-55,55-55h389c30.2,0,55,24.7,55,55v355.2
	C505.1,460.8,480.4,485.5,450.1,485.5z"/>
<g>
	<g>
		<path class="st1" d="M372.9,196.4h18.7v169H274.3v4.7c0,10.4-8.4,18.7-18.7,18.7s-18.7-8.4-18.7-18.7v-4.7H119.4v-169h18.7v145.5
			h234.8V170.2l20.9-20.9c4.6-4.6,7.2-10.9,7.2-17.4c0-13.6-11-24.6-24.7-24.6c-6.6,0-12.7,2.6-17.4,7.2L328.6,145H138.2v42.2H110
			V375h117.8c2.3,13.3,13.8,23.5,27.8,23.5c13.9,0,25.6-10.2,27.8-23.5h117.8V187H373L372.9,196.4L372.9,196.4z M363.5,332.6H260.3
			v-55l7.1-1.8l41.8-41.8h45v-9.4h-35.6l45-45V332.6z M337.7,149l7.4,7.4l-6.3,6.3l6.6,6.6l6.3-6.3l7.4,7.4l-94.3,94.3l-7.4-7.4
			l81.3-81.3l-6.6-6.6l-81.3,81.3l-7.4-7.4L337.7,149z M365.9,163.9l-21.5-21.5l7.4-7.4l21.5,21.5L365.9,163.9z M239.3,252.6
			l16.5,16.5l-21.9,5.5L239.3,252.6z M365.7,121.1c2.9-2.9,6.7-4.4,10.8-4.4c8.4,0,15.2,6.8,15.2,15.2c0,4-1.6,7.9-4.4,10.8
			l-7.3,7.3l-21.5-21.5L365.7,121.1z M260.3,213.2v-59.1h59.1L260.3,213.2z M147.6,154.2h103.3v68.5L232.5,241l-11.6,46.5l29.9-7.5
			v52.7H147.6V154.2z"/>
		<rect x="157" y="173.8" class="st1" width="84.5" height="9.4"/>
		<rect x="157" y="230.2" class="st1" width="65.7" height="9.4"/>
		<rect x="157" y="249" class="st1" width="56.3" height="9.4"/>
		<rect x="157" y="267.7" class="st1" width="56.3" height="9.4"/>
		<rect x="157" y="286.5" class="st1" width="56.3" height="9.4"/>
		<rect x="307.2" y="249" class="st1" width="47" height="9.4"/>
		<rect x="307.2" y="267.7" class="st1" width="47" height="9.4"/>
		<rect x="269.6" y="280.9" class="st1" width="84.5" height="9.4"/>
		<rect x="344.8" y="299.8" class="st1" width="9.4" height="9.4"/>
		<rect x="269.6" y="299.8" class="st1" width="65.7" height="9.4"/>
		<rect x="157" y="305.3" class="st1" width="84.5" height="9.4"/>
		<rect x="203.9" y="192.6" class="st1" width="37.6" height="9.4"/>
		<rect x="157" y="192.6" class="st1" width="37.6" height="9.4"/>
		<rect x="203.9" y="211.4" class="st1" width="37.6" height="9.4"/>
		<rect x="157" y="211.4" class="st1" width="37.6" height="9.4"/>
	</g>
</g>
</svg>
