<?xml version="1.0" encoding="utf-8"?>
<!-- Generator: Adobe Illustrator 23.0.1, SVG Export Plug-In . SVG Version: 6.00 Build 0)  -->
<svg version="1.1" id="Capa_1" xmlns="http://www.w3.org/2000/svg" xmlns:xlink="http://www.w3.org/1999/xlink" x="0px" y="0px"
	 viewBox="0 0 501.2 501.2" style="enable-background:new 0 0 501.2 501.2;" xml:space="preserve">
<style type="text/css">
	.st0{fill:#6C6D6D;}
	.st1{fill:#E97236;}
	.st2{fill:#FFFFFF;}
</style>
<circle class="st0" cx="250.3" cy="251" r="248"/>
<path class="st1" d="M196,161.1c14.5,3.6,24.6,16.6,24.6,31.5v42.3c0,10.2-8.3,18.4-18.4,18.4h-0.4c-2.1,14.5-11.4,26.6-24.1,32.7
	v10.3l39.4,7.9c10.1,2,18.8,8.2,24.1,16.7h176.2V161.1H196z"/>
<path class="st2" d="M255.9,345.6h167.5c10.2,0,18.4-8.3,18.4-18.4V155c0-10.2-8.3-18.4-18.4-18.4H159.1v0.1
	c-37.5,1.3-67.6,32.1-67.6,69.9v28.3c0,12,8.6,21.9,19.9,24.1c3.2,13.1,11.7,24.1,23.1,30.7v1.6l-34.5,6.9
	c-15.9,3.2-28.5,14.8-32.9,30.4l-8.4,29.2h200.7L255.9,345.6z M161.5,148.8c11.8,0,22.8,5.9,29.3,15.7l1.3,2l2.3,0.6
	c11.7,2.9,19.9,13.4,19.9,25.5v21.1c-3.6-2.1-7.8-3.4-12.3-3.4c-14.5,0-29-4.8-40.6-13.5l-9.2-6.9l-9.2,9.2
	c-7.2,7.2-16.9,11.2-27.1,11.2c-4.5,0-8.7,1.3-12.3,3.4v-7.1C103.7,174.7,129.7,148.8,161.5,148.8z M208.3,224.3
	c3.7,2.1,6.1,6.1,6.1,10.6c0,4.5-2.5,8.5-6.1,10.6V224.3z M103.7,234.9c0-4.5,2.5-8.5,6.1-10.6v21.2
	C106.2,243.3,103.7,239.4,103.7,234.9z M122.2,247.2v-25c11.2-1.3,21.6-6.3,29.7-14.4l1.6-1.6l0.6,0.5c12.1,9.1,26.8,14.6,41.8,15.7
	v24.8c0,20.3-16.5,36.9-36.9,36.9S122.2,267.5,122.2,247.2z M75,345.6l3.9-13.6c3.2-11.1,12.2-19.4,23.5-21.7l44.4-8.9v-6.7
	c3.9,1,8,1.6,12.3,1.6c4.3,0,8.4-0.6,12.3-1.6v6.7l44.4,8.9c11.3,2.3,20.4,10.6,23.5,21.7l3.9,13.6H75z M218.2,298.2l-34.5-6.9v-1.6
	c11.4-6.6,19.8-17.6,23.1-30.7c11.3-2.2,19.9-12.2,19.9-24.1v-42.3c0-17-11-31.8-27-36.8c-1.9-2.6-4.1-4.9-6.4-7h230.1
	c3.4,0,6.1,2.8,6.1,6.1v172.1c0,3.4-2.8,6.1-6.1,6.1h-171l-1.3-4.7C246.7,313,234,301.4,218.2,298.2z"/>
<polygon class="st2" points="282,210.3 245.2,210.3 245.2,222.6 269.7,222.6 269.7,234.9 257.5,234.9 257.5,247.2 269.7,247.2 
	269.7,259.5 245.2,259.5 245.2,271.8 282,271.8 "/>
<polygon class="st2" points="380.4,259.5 355.8,259.5 355.8,247.2 380.4,247.2 380.4,210.3 343.5,210.3 343.5,222.6 368.1,222.6 
	368.1,234.9 343.5,234.9 343.5,271.8 380.4,271.8 "/>
<polygon class="st2" points="306.6,259.5 318.9,259.5 318.9,247.2 331.2,247.2 331.2,234.9 318.9,234.9 318.9,222.6 306.6,222.6 
	306.6,234.9 294.3,234.9 294.3,247.2 306.6,247.2 "/>
</svg>
