<?xml version="1.0" encoding="utf-8"?>
<!-- Generator: Adobe Illustrator 23.0.1, SVG Export Plug-In . SVG Version: 6.00 Build 0)  -->
<svg version="1.1" id="Capa_1" xmlns="http://www.w3.org/2000/svg" xmlns:xlink="http://www.w3.org/1999/xlink" x="0px" y="0px"
	 viewBox="0 0 496 496" style="enable-background:new 0 0 496 496;" xml:space="preserve">
<style type="text/css">
	.st0{fill:#6C6D6D;}
	.st1{fill:#E97236;}
	.st2{fill:#FFFFFF;}
</style>
<circle class="st0" cx="248" cy="249" r="248"/>
<g>
	<path class="st1" d="M325.6,308.4c-3.4-11.9-13.3-20.7-25.5-22.8l-28-4.7v-16.2c9.7-7.3,16-18.8,16-31.8v-24c0-22.1-17.9-40-40-40
		s-40,17.9-40,40v24c0,13,6.3,24.5,16,31.8V281l-28,4.7c-12.2,2-22.1,10.9-25.5,22.8L160,345h176L325.6,308.4z"/>
</g>
<path class="st2" d="M320,81H176c-17.6,0-32,14.4-32,32v272c0,17.6,14.4,32,32,32h144c17.6,0,32-14.4,32-32V113
	C352,95.4,337.7,81,320,81z M176,97h144c8.8,0,16,7.2,16,16v16H160v-16C160,104.2,167.2,97,176,97z M336,145v192H160V145H336z
	 M320,401H176c-8.8,0-16-7.2-16-16v-32h176v32C336,393.8,328.8,401,320,401z"/>
<rect x="216" y="369" class="st2" width="64" height="16"/>
</svg>
