<?xml version="1.0" encoding="utf-8"?>
<!-- Generator: Adobe Illustrator 23.0.1, SVG Export Plug-In . SVG Version: 6.00 Build 0)  -->
<svg version="1.1" id="Capa_1" xmlns="http://www.w3.org/2000/svg" xmlns:xlink="http://www.w3.org/1999/xlink" x="0px" y="0px"
	 viewBox="0 0 506 496" style="enable-background:new 0 0 506 496;" xml:space="preserve">
<style type="text/css">
	.st0{fill:#F04148;}
	.st1{fill:#FFFFFF;}
</style>
<path class="st0" d="M447.5,475.4h-389c-30.2,0-55-24.7-55-55V65.2c0-30.2,24.7-55,55-55h389c30.2,0,55,24.7,55,55v355.2
	C502.5,450.6,477.8,475.4,447.5,475.4z"/>
<g>
	<path class="st1" d="M319.5,87.7H186.5c-16.2,0-29.5,13.3-29.5,29.5v251.1c0,16.2,13.3,29.5,29.5,29.5h132.9
		c16.2,0,29.5-13.3,29.5-29.5V117.2C349,101,335.8,87.7,319.5,87.7z M186.5,102.5h132.9c8.1,0,14.8,6.6,14.8,14.8V132H171.8v-14.8
		C171.8,109.1,178.4,102.5,186.5,102.5z M334.2,146.8V324H171.8V146.8H334.2z M319.5,383.1H186.5c-8.1,0-14.8-6.6-14.8-14.8v-29.5
		h162.5v29.5C334.2,376.4,327.6,383.1,319.5,383.1z"/>
	<rect x="223.5" y="353.5" class="st1" width="59.1" height="14.8"/>
</g>
</svg>
