<?xml version="1.0" encoding="utf-8"?>
<!-- Generator: Adobe Illustrator 23.0.1, SVG Export Plug-In . SVG Version: 6.00 Build 0)  -->
<svg version="1.1" id="Layer_1" xmlns="http://www.w3.org/2000/svg" xmlns:xlink="http://www.w3.org/1999/xlink" x="0px" y="0px"
	 viewBox="0 0 523.9 496" style="enable-background:new 0 0 523.9 496;" xml:space="preserve">
<style type="text/css">
	.st0{fill:#F04148;}
	.st1{fill:none;stroke:#FFFFFF;stroke-width:7;stroke-miterlimit:10;}
	.st2{fill:#FFFFFF;}
</style>
<path class="st0" d="M454.2,474.4h-389c-30.2,0-55-24.7-55-55V64.2c0-30.2,24.7-55,55-55h389c30.2,0,55,24.7,55,55v355.2
	C509.1,449.6,484.4,474.4,454.2,474.4z"/>
<g>
	<g>
		<path class="st1" d="M341,143.1H178.5L162,217.4h195.6L341,143.1z"/>
		<path class="st2" d="M178.4,282.5h-34.9c-9.6,0-17.4-7.8-17.4-17.4v-11.6c0-9.6,7.8-17.4,17.4-17.4h34.9c9.6,0,17.4,7.8,17.4,17.4
			v11.6C195.8,274.7,188,282.5,178.4,282.5z"/>
		<path class="st2" d="M376,282.5h-34.9c-9.6,0-17.4-7.8-17.4-17.4v-11.6c0-9.6,7.8-17.4,17.4-17.4H376c9.6,0,17.4,7.8,17.4,17.4
			v11.6C393.4,274.7,385.6,282.5,376,282.5z"/>
	</g>
	<path class="st2" d="M422.5,189.5H387l-11-49.5c-4.2-18.8-20.5-31.9-39.8-31.9h-15.4c-0.4,0.2-0.7,0.3-1.2,0.3
		c-1.2,0-2.3-0.1-3.5-0.1c-0.3,0.1-0.5,0.1-0.7,0.1c-2,0-4.6,0.3-6.5-0.5l0,0c-1.6,0.2-3.1,0.4-4.6,0.4c-0.4,0-0.6-0.1-0.8-0.2h-4.2
		c-9.3,0.4-18.7,0.3-28-0.1v0.1h-23.3V108c-4,0-8,0.3-12,0.2c-0.3,0-0.5-0.1-0.7-0.2H215c-0.2,0-0.4,0.1-0.5,0
		c-2.3-0.2-4.6,0.2-6.9-0.2c-1.6,0-3.1,0.1-4.7,0.1c-0.1,0-0.3,0-0.4,0v0.1h-19.4c-19.2,0-35.5,13.1-39.8,31.9l-11,49.6H97
		c-9.6,0-17.4,7.8-17.4,17.4v11.6c0,9.6,7.8,17.4,17.4,17.4h9.8c-2.6,5.4-4,11.4-4,17.4v40.7c-6.4,0-11.6,5.2-11.6,11.6v11.6
		c0,6.4,5.2,11.6,11.6,11.6H126v29.1c0,9.6,7.8,17.4,17.4,17.4h34.9c9.6,0,17.4-7.8,17.4-17.4v-29h127.9v29
		c0,9.6,7.8,17.4,17.4,17.4h34.9c9.6,0,17.4-7.8,17.4-17.4v-29h23.3c6.4,0,11.6-5.2,11.6-11.6v-11.6c0-6.4-5.2-11.6-11.6-11.6v-40.7
		c0-6-1.5-12-4-17.4h9.8c9.6,0,17.4-7.8,17.4-17.4V207C439.9,197.4,432,189.5,422.5,189.5z M154.8,142.6
		c2.9-13.4,14.7-22.7,28.4-22.7h153.2c13.7,0,25.4,9.3,28.4,22.7l15.7,70.6c-1.5-0.2-2.9-0.4-4.5-0.4H143.5c-1.5,0-2.9,0.2-4.5,0.4
		L154.8,142.6z M143.5,224.4H376c6.2,0,12.5,2.1,17.4,5.8c7.2,5.5,11.6,14.1,11.6,23.3v40.7H114.5v-40.7c0-9.1,4.3-17.8,11.6-23.3
		C131,226.5,137.3,224.4,143.5,224.4z M97,224.4c-3.2,0-5.8-2.7-5.8-5.8V207c0-3.2,2.6-5.8,5.8-5.8h32.8l-3.5,15.6
		c-2.6,1.2-5,2.6-7.2,4.2c-1.5,1.1-2.7,2.3-4,3.5L97,224.4L97,224.4z M184.2,340.7h-11.6v11.6h11.6v5.8c0,3.2-2.6,5.8-5.8,5.8h-34.9
		c-3.2,0-5.8-2.7-5.8-5.8v-5.8h11.6v-11.6h-11.6V329h46.5L184.2,340.7L184.2,340.7z M381.7,340.7h-11.6v11.6h11.6v5.8
		c0,3.2-2.6,5.8-5.8,5.8h-34.9c-3.2,0-5.8-2.7-5.8-5.8v-5.8h11.6v-11.6h-11.6V329h46.5L381.7,340.7L381.7,340.7z M416.6,305.8v11.6
		H102.8v-11.6H416.6z M428.3,218.6c0,3.2-2.6,5.8-5.8,5.8h-18c-1.3-1.3-2.6-2.4-4-3.5c-2.3-1.6-4.7-3-7.2-4.2l-3.5-15.6h32.8
		c3.2,0,5.8,2.7,5.8,5.8V218.6z"/>
	<path class="st2" d="M284.3,236.1h-49c-8.9,0-16.1,7.2-16.1,16.1c0,1.3,0.2,2.7,0.5,3.9l3.6,14.2c1.8,7.2,8.2,12.3,15.7,12.3h41.9
		c7.4,0,13.9-5,15.7-12.3l3.6-14.2c0.4-1.3,0.5-2.6,0.5-3.9C300.4,243.3,293.2,236.1,284.3,236.1z M288.7,253.3l-3.6,14.2
		c-0.5,2-2.3,3.5-4.4,3.5h-41.9c-2.1,0-3.9-1.4-4.4-3.4l-3.6-14.2c-0.1-0.4-0.1-0.7-0.1-1.1c0-2.5,2-4.6,4.6-4.6h49
		c2.5,0,4.6,2,4.6,4.6C288.8,252.6,288.8,252.9,288.7,253.3z"/>
</g>
</svg>
