<?xml version="1.0" encoding="utf-8"?>
<!-- Generator: Adobe Illustrator 23.0.1, SVG Export Plug-In . SVG Version: 6.00 Build 0)  -->
<svg version="1.1" id="Layer_1" xmlns="http://www.w3.org/2000/svg" xmlns:xlink="http://www.w3.org/1999/xlink" x="0px" y="0px"
	 viewBox="0 0 496 496" style="enable-background:new 0 0 496 496;" xml:space="preserve">
<style type="text/css">
	.st0{fill:#6C6D6D;}
	.st1{fill:#E97236;}
	.st2{fill:#FFFFFF;}
</style>
<circle class="st0" cx="248" cy="248" r="248"/>
<g>
	<g>
		<path class="st1" d="M336.7,140.3H159.3l-18,81.1h213.6L336.7,140.3z"/>
		<path class="st1" d="M159.2,292.5h-38.1c-10.5,0-19-8.5-19-19v-12.7c0-10.5,8.5-19,19-19h38.1c10.5,0,19,8.5,19,19v12.7
			C178.2,284,169.7,292.5,159.2,292.5z"/>
		<path class="st1" d="M374.9,292.5h-38.1c-10.5,0-19-8.5-19-19v-12.7c0-10.5,8.5-19,19-19h38.1c10.5,0,19,8.5,19,19v12.7
			C393.9,284,385.4,292.5,374.9,292.5z"/>
	</g>
	<path class="st2" d="M425.7,191H387L375,137c-4.6-20.5-22.4-34.8-43.4-34.8h-16.8c-0.4,0.2-0.8,0.3-1.3,0.3c-1.3,0-2.5-0.1-3.8-0.1
		c-0.3,0.1-0.5,0.1-0.8,0.1c-2.2,0-5,0.3-7.1-0.6c0,0,0,0,0,0c-1.7,0.2-3.4,0.4-5,0.4c-0.4,0-0.7-0.1-0.9-0.2h-4.6
		c-10.2,0.4-20.4,0.3-30.6-0.1v0.1h-25.4v-0.1c-4.4,0-8.7,0.3-13.1,0.2c-0.3,0-0.6-0.1-0.8-0.2h-22.2c-0.2,0-0.4,0.1-0.6,0
		c-2.5-0.2-5,0.2-7.5-0.2c-1.7,0-3.4,0.1-5.1,0.1c-0.1,0-0.3,0-0.4,0l0,0.1h-21.2c-21,0-38.8,14.3-43.4,34.8L109,191H70.3
		c-10.5,0-19,8.5-19,19v12.7c0,10.5,8.5,19,19,19h10.7c-2.8,5.9-4.4,12.4-4.4,19v44.4c-7,0-12.7,5.7-12.7,12.7v12.7
		c0,7,5.7,12.7,12.7,12.7h25.4V375c0,10.5,8.5,19,19,19h38.1c10.5,0,19-8.5,19-19v-31.7h139.6V375c0,10.5,8.5,19,19,19h38.1
		c10.5,0,19-8.5,19-19v-31.7h25.4c7,0,12.7-5.7,12.7-12.7v-12.7c0-7-5.7-12.7-12.7-12.7v-44.4c0-6.6-1.6-13.1-4.4-19h10.7
		c10.5,0,19-8.5,19-19v-12.7C444.7,199.6,436.1,191,425.7,191z M133.4,139.7c3.2-14.6,16-24.8,31-24.8h167.3c15,0,27.7,10.2,31,24.8
		l17.1,77.1c-1.6-0.2-3.2-0.4-4.9-0.4H121.1c-1.6,0-3.2,0.2-4.9,0.4L133.4,139.7z M121.1,229.1h253.8c6.8,0,13.6,2.3,19,6.3
		c7.9,6,12.7,15.4,12.7,25.4v44.4H89.4v-44.4c0-9.9,4.7-19.4,12.7-25.4C107.5,231.3,114.3,229.1,121.1,229.1z M70.3,229.1
		c-3.5,0-6.3-2.9-6.3-6.3v-12.7c0-3.5,2.8-6.3,6.3-6.3h35.8l-3.8,17c-2.8,1.3-5.5,2.8-7.9,4.6c-1.6,1.2-3,2.5-4.4,3.8H70.3z
		 M165.5,356h-12.7v12.7h12.7v6.3c0,3.5-2.8,6.3-6.3,6.3h-38.1c-3.5,0-6.3-2.9-6.3-6.3v-6.3h12.7V356h-12.7v-12.7h50.8V356z
		 M381.2,356h-12.7v12.7h12.7v6.3c0,3.5-2.8,6.3-6.3,6.3h-38.1c-3.5,0-6.3-2.9-6.3-6.3v-6.3h12.7V356h-12.7v-12.7h50.8V356z
		 M419.3,317.9l0,12.7H76.7v-12.7H419.3z M432,222.7c0,3.5-2.8,6.3-6.3,6.3h-19.7c-1.4-1.4-2.8-2.6-4.4-3.8
		c-2.5-1.8-5.1-3.3-7.9-4.6l-3.8-17h35.8c3.5,0,6.3,2.9,6.3,6.3V222.7z"/>
	<path class="st2" d="M274.8,241.8h-53.5c-9.7,0-17.6,7.9-17.6,17.6c0,1.4,0.2,2.9,0.5,4.3l3.9,15.5c2,7.9,9,13.4,17.1,13.4h45.8
		c8.1,0,15.2-5.5,17.1-13.4l3.9-15.5c0.4-1.4,0.5-2.8,0.5-4.3C292.4,249.7,284.5,241.8,274.8,241.8z M279.6,260.6l-3.9,15.5
		c-0.6,2.2-2.5,3.8-4.8,3.8h-45.8c-2.3,0-4.3-1.5-4.8-3.7l-3.9-15.5c-0.1-0.4-0.1-0.8-0.1-1.2c0-2.7,2.2-5,5-5h53.5c2.7,0,5,2.2,5,5
		C279.7,259.8,279.7,260.2,279.6,260.6z"/>
</g>
</svg>
