<?xml version="1.0" encoding="utf-8"?>
<!-- Generator: Adobe Illustrator 23.0.1, SVG Export Plug-In . SVG Version: 6.00 Build 0)  -->
<svg version="1.1" id="Capa_1" xmlns="http://www.w3.org/2000/svg" xmlns:xlink="http://www.w3.org/1999/xlink" x="0px" y="0px"
	 viewBox="0 0 501.2 501.2" style="enable-background:new 0 0 501.2 501.2;" xml:space="preserve">
<style type="text/css">
	.st0{fill:#F04148;}
	.st1{fill:#FFFFFF;}
</style>
<path class="st0" d="M445.5,482.9h-389c-30.2,0-55-24.7-55-55V72.7c0-30.2,24.7-55,55-55h389c30.2,0,55,24.7,55,55v355.2
	C500.5,458.1,475.7,482.9,445.5,482.9z"/>
<g>
	<path class="st1" d="M256.3,343.3h158.3c9.6,0,17.4-7.8,17.4-17.4V163.2c0-9.6-7.8-17.4-17.4-17.4H164.8v0.1
		c-5.2,0.3-27.1,2-45.2,20.1c-6.8,6.7-12,14.9-15.5,23.8c-4.4,11.2-5.1,23.1-6.9,34.8c-1.8,12.3-5.4,24.3-7.9,36.5
		c-1.5,7.7-3.1,15.8-2.7,23.7c0.1,2.3,0.4,6.3,2.9,7.4c3.2,1.4,10.7-2.4,30.1-30.7c3,12.4,11.1,22.8,21.8,29v1.5l-32.6,6.5
		c-15,3-26.9,14-31.1,28.7L70,354.8h189.6L256.3,343.3z M130,250.3v-23.6c10.6-1.2,20.4-6,28.1-13.6l1.5-1.5l0.6,0.5
		c11.4,8.6,25.3,13.8,39.5,14.8v23.4c0,19.2-15.6,34.9-34.9,34.9S130,269.5,130,250.3z M85.4,343.3l3.7-12.8
		c3-10.5,11.5-18.3,22.2-20.5l42-8.4v-6.3c3.7,0.9,7.6,1.5,11.6,1.5c4.1,0,7.9-0.6,11.6-1.5v6.3l42,8.4c10.7,2.2,19.3,10,22.2,20.5
		l3.7,12.8H85.4z M220.7,298.5l-32.6-6.5v-1.5c10.8-6.2,18.7-16.6,21.8-29c12.4,21,20.8,30.7,25,29.2c5.5-2,4.3-22.3-3.4-61
		c-0.9-10.3-1.9-20.6-2.8-31c-0.8-8.5-1.6-10.9-2.5-13.2c-2-5.7-5.7-10.8-10.1-14.9c-2-1.9-4.3-3.7-6.6-5.2
		c-2.1-1.4-4.3-2.6-6.3-4.1c-1.9-1.5-3.6-3.2-6-3.9h217.4c3.2,0,5.8,2.6,5.8,5.8v162.6c0,3.2-2.6,5.8-5.8,5.8H253l-1.2-4.4
		C247.6,312.5,235.6,301.5,220.7,298.5z"/>
	<polygon class="st1" points="281,215.4 246.2,215.4 246.2,227.1 269.3,227.1 269.3,238.7 257.8,238.7 257.8,250.3 269.3,250.3 
		269.3,261.9 246.2,261.9 246.2,273.5 281,273.5 	"/>
	<polygon class="st1" points="373.9,261.9 350.7,261.9 350.7,250.3 373.9,250.3 373.9,215.4 339.1,215.4 339.1,227.1 362.3,227.1 
		362.3,238.7 339.1,238.7 339.1,273.5 373.9,273.5 	"/>
	<polygon class="st1" points="304.2,261.9 315.8,261.9 315.8,250.3 327.5,250.3 327.5,238.7 315.8,238.7 315.8,227.1 304.2,227.1 
		304.2,238.7 292.6,238.7 292.6,250.3 304.2,250.3 	"/>
</g>
</svg>
